# xmcd
#
# Track frame offsets:
#	150
#	12323
#	23440
#	34540
#	48190
#	61478
#	74865
#	86760
#	101058
#	113785
#	126053
#	140758
#	151745
#	163453
#	175213
#	186345
#
# Disc length: 2658
#
# Revision: 1
# Processed by: cddbd v1.5.1PL0 Copyright (c) Steve Scherf et al.
# Submitted via: CDex 1.51
# Normalized: r0:DSETVAR1,TDELIM( - )
#
DISCID=de0a6010
DTITLE=Various Artist - Those Fabulous 50's
DYEAR=1988
DGENRE=Blues
TTITLE0=Frankie Laine - High Noon
TTITLE1=Rosemary Clooney - This Ole House
TTITLE2=Guy Mitchell - Singing The Blues
TTITLE3=The Four Aces - Three Coins In The Fountain
TTITLE4=Al Hibbler - Unchained Melody
TTITLE5=Patti Page - The Tennessee Waltz
TTITLE6=The Hilltoppers - Only You
TTITLE7=Johnnie Ray - Cry
TTITLE8=Rosemary Clooney - Half As Much
TTITLE9=Four Lads - Standing On The Corner
TTITLE10=Frankie Laine - Jezebel
TTITLE11=Pattie Page - The Doggie In The Window
TTITLE12=The Platters - The Great Pretender
TTITLE13=Guy Mitchell - Heartaches By The Number
TTITLE14=The Four Preps - Big Man
TTITLE15=The Crewcuts - Earth Angel
EXTD=YEAR: 1988
EXTT0=
EXTT1=
EXTT2=
EXTT3=
EXTT4=
EXTT5=
EXTT6=
EXTT7=
EXTT8=
EXTT9=
EXTT10=
EXTT11=
EXTT12=
EXTT13=
EXTT14=
EXTT15=
PLAYORDER=
